<?xml version="1.0" encoding="UTF-8"?>
<!-- Created with Inkscape (http://www.inkscape.org/) -->
<svg width="11.493mm" height="11.209mm" version="1.1" viewBox="0 0 11.493 11.209" xmlns="http://www.w3.org/2000/svg">
 <g transform="translate(-121.15 -25.014)">
  <path d="m126.9 25.014c-3.1732 0-5.746 2.5728-5.746 5.7468 0 2.5389 1.6464 4.6926 3.9299 5.4529 0.28751 0.05256 0.39229-0.12488 0.39229-0.27728 0-0.13617-5e-3 -0.49777-8e-3 -0.9772-1.5984 0.34713-1.9357-0.77047-1.9357-0.77047-0.26141-0.66358-0.63818-0.84032-0.63818-0.84032-0.52176-0.35666 0.0395-0.3496 0.0395-0.3496 0.57679 0.04092 0.88018 0.59231 0.88018 0.59231 0.51259 0.87806 1.3451 0.62442 1.6725 0.47766 0.0522-0.37148 0.20038-0.62477 0.36477-0.76835-1.276-0.14499-2.6176-0.63818-2.6176-2.8402 0-0.62724 0.22402-1.1402 0.59161-1.542-0.0593-0.14534-0.25647-0.72954 0.0561-1.5208 0 0 0.4826-0.15452 1.5804 0.58914 0.45826-0.12735 0.95003-0.1912 1.4386-0.19332 0.48789 0.0021 0.97966 0.06597 1.4386 0.19332 1.0971-0.74366 1.5787-0.58914 1.5787-0.58914 0.31362 0.79128 0.11642 1.3755 0.0572 1.5208 0.3683 0.40181 0.59091 0.91475 0.59091 1.542 0 2.2077-1.3437 2.6935-2.624 2.8356 0.20637 0.17745 0.39017 0.52811 0.39017 1.0643 0 0.768-7e-3 1.3878-7e-3 1.5762 0 0.15381 0.10337 0.33267 0.39511 0.27658 2.2818-0.76165 3.9268-2.9139 3.9268-5.4522 0-3.1739-2.5732-5.7468-5.7471-5.7468" fill="#1b1817" fill-rule="evenodd"/>
 </g>
</svg>
