<?xml version="1.0" encoding="UTF-8" standalone="no"?>
<!-- Created with Inkscape (http://www.inkscape.org/) -->

<svg
   width="103.5255mm"
   height="31.211308mm"
   viewBox="0 0 103.5255 31.211308"
   version="1.1"
   id="svg1341"
   xmlns="http://www.w3.org/2000/svg"
   xmlns:svg="http://www.w3.org/2000/svg">
  <defs
     id="defs1338" />
  <g
     id="layer1"
     transform="translate(-66.969212,-33.04383)">
    <g
       id="g1309"
       transform="matrix(0.35277777,0,0,-0.35277777,-279.3432,39.432384)">
      <g
         id="g959"
         transform="translate(1025.757,18.109286)">
        <path
           d="m 0,0 c -23.237,0 -42.274,-17.918 -44.084,-40.689 l 23.71,-9.803 c 2.009,1.374 4.436,2.178 7.047,2.178 0.234,0 0.467,-0.007 0.698,-0.02 l 10.544,15.283 c 0,0.073 -10e-4,0.144 -10e-4,0.216 0,9.199 7.483,16.683 16.683,16.683 9.199,0 16.682,-7.484 16.682,-16.683 0,-9.199 -7.483,-16.684 -16.682,-16.684 -0.127,0 -0.253,0.003 -0.379,0.006 L -0.82,-60.243 c 0.008,-0.196 0.015,-0.394 0.015,-0.592 0,-6.906 -5.617,-12.523 -12.522,-12.523 -6.061,0 -11.129,4.327 -12.277,10.055 l -16.956,7.011 c 5.25,-18.569 22.309,-32.181 42.56,-32.181 24.432,0 44.237,19.806 44.237,44.236 C 44.237,-19.805 24.432,0 0,0"
           style="fill:#231f20;fill-opacity:1;fill-rule:nonzero;stroke:none"
           id="path961" />
      </g>
      <g
         id="g963"
         transform="translate(1009.395,-49.013214)">
        <path
           d="m 0,0 -5.434,2.245 c 0.963,-2.005 2.629,-3.683 4.841,-4.606 4.782,-1.992 10.295,0.277 12.288,5.062 0.965,2.315 0.971,4.87 0.014,7.19 -0.955,2.321 -2.757,4.131 -5.074,5.097 -2.299,0.957 -4.762,0.921 -6.926,0.105 L 5.322,12.772 C 8.849,11.302 10.517,7.252 9.047,3.725 7.579,0.198 3.527,-1.47 0,0"
           style="fill:#231f20;fill-opacity:1;fill-rule:nonzero;stroke:none"
           id="path965" />
      </g>
      <g
         id="g967"
         transform="translate(1032.0215,-14.706314)">
        <path
           d="m 0,0 c 0,4.612 3.739,8.35 8.351,8.35 4.612,0 8.351,-3.738 8.351,-8.35 0,-4.612 -3.739,-8.35 -8.351,-8.35 C 3.739,-8.35 0,-4.612 0,0 m 19.448,-0.019 c 0,6.129 -4.986,11.116 -11.116,11.116 -6.129,0 -11.116,-4.987 -11.116,-11.116 0,-6.13 4.987,-11.115 11.116,-11.115 6.13,0 11.116,4.985 11.116,11.115"
           style="fill:#231f20;fill-opacity:1;fill-rule:nonzero;stroke:none"
           id="path969" />
      </g>
      <g
         id="g971"
         transform="translate(1117.2378,-12.157714)">
        <path
           d="m 0,0 -2.964,-5.21 c -2.283,1.595 -5.377,2.555 -8.078,2.555 -3.087,0 -4.997,-1.278 -4.997,-3.567 0,-2.781 3.393,-3.428 8.436,-5.238 5.421,-1.917 8.537,-4.171 8.537,-9.135 0,-6.793 -5.342,-10.609 -13.02,-10.609 -3.742,0 -8.256,0.966 -11.726,3.077 l 2.162,5.777 c 2.819,-1.49 6.191,-2.372 9.197,-2.372 4.052,0 5.978,1.495 5.978,3.705 0,2.529 -2.937,3.289 -7.678,4.859 -5.403,1.804 -9.147,4.171 -9.147,9.666 0,6.197 4.963,9.756 12.104,9.756 C -6.22,3.264 -2.22,1.687 0,0"
           style="fill:#231f20;fill-opacity:1;fill-rule:nonzero;stroke:none"
           id="path973" />
      </g>
      <g
         id="g975"
         transform="translate(1140.4066,-15.450614)">
        <path
           d="M 0,0 V -27.339 H -6.978 V 0 h -10.13 V 5.986 H 10.101 V 0 Z"
           style="fill:#231f20;fill-opacity:1;fill-rule:nonzero;stroke:none"
           id="path977" />
      </g>
      <g
         id="g979"
         transform="translate(1165.2192,-15.432614)">
        <path
           d="m 0,0 v -7.509 h 13.356 v -5.986 H 0 v -7.822 h 15.496 v -6.04 H -6.977 V 5.968 H 15.496 V 0 Z"
           style="fill:#231f20;fill-opacity:1;fill-rule:nonzero;stroke:none"
           id="path981" />
      </g>
      <g
         id="g983"
         transform="translate(1202.7378,-17.415014)">
        <path
           d="m 0,0 -4.55,-13.343 h 9.196 z m -6.445,-18.905 -2.206,-6.47 h -7.316 L -3.472,7.95 H 3.553 L 16.401,-25.375 H 8.837 l -2.254,6.47 z"
           style="fill:#231f20;fill-opacity:1;fill-rule:nonzero;stroke:none"
           id="path985" />
      </g>
      <g
         id="g987"
         transform="translate(1254.9546,-22.345614)">
        <path
           d="m 0,0 -9.119,-19.473 h -3.938 l -8.972,19.299 v -20.27 h -6.684 v 33.325 h 6.668 l 11.201,-24.056 10.801,24.056 H 6.684 V -20.444 H 0.001 Z"
           style="fill:#231f20;fill-opacity:1;fill-rule:nonzero;stroke:none"
           id="path989" />
      </g>
      <g
         id="g991"
         transform="translate(1269.7261,-13.431614)">
        <path
           d="m 0,0 h 0.815 c 0.527,0 0.838,0.331 0.838,0.747 0,0.42 -0.223,0.69 -0.84,0.69 L 0,1.437 Z m 0.86,2.132 c 1.195,0 1.596,-0.632 1.596,-1.315 0,-0.626 -0.371,-1.046 -0.823,-1.26 L 2.704,-2.45 H 1.827 L 0.924,-0.671 H -0.007 V -2.45 h -0.73 v 4.582 z m -3.912,-2.369 c 0,-2.396 1.725,-3.901 3.847,-3.901 2.115,0 3.833,1.505 3.833,3.901 0,2.403 -1.718,3.885 -3.833,3.885 -2.116,0 -3.847,-1.5 -3.847,-3.885 m 8.457,0 c 0,-2.864 -2.146,-4.649 -4.61,-4.649 -2.471,0 -4.623,1.785 -4.623,4.649 0,2.863 2.152,4.636 4.623,4.636 2.464,0 4.61,-1.773 4.61,-4.636"
           style="fill:#231f20;fill-opacity:1;fill-rule:nonzero;stroke:none"
           id="path993" />
      </g>
    </g>
  </g>
</svg>
